<?xml version="1.0" encoding="utf-8"?>
<!-- Generator: Adobe Illustrator 21.1.0, SVG Export Plug-In . SVG Version: 6.00 Build 0)  -->
<svg version="1.1" id="Layer_1" xmlns="http://www.w3.org/2000/svg" xmlns:xlink="http://www.w3.org/1999/xlink" x="0px" y="0px"
	 viewBox="0 0 500 500" style="enable-background:new 0 0 500 500;" xml:space="preserve">
<style type="text/css">
	.st0{fill:#FFC572;}
	.st1{fill:#EB698C;}
	.st2{fill:#FFBB7D;}
	.st3{fill:#5B9DA4;}
	.st4{fill:#FFD293;}
	.st5{fill:#FFCBA1;}
	.st6{fill:#70CB7B;}
	.st7{fill:#E9A788;}
	.st8{fill:#FFE379;}
	.st9{fill:#50D7A1;}
	.st10{fill:#FFED8F;}
	.st11{fill:#E2CCAA;}
	.st12{fill:#FFEA9E;}
</style>
<g>
	<path class="st0" d="M82.6,361.2v63.7c0,7.1,5.8,12.9,12.9,12.9h100.6c7.1,0,12.9-5.8,12.9-12.9v-51.7c-2.2-10.4-3.5-21-3.7-31.8
		C169.5,363.8,125.3,371.7,82.6,361.2z"/>
	<path class="st1" d="M417.4,424.9V232.6c-26.1,40.5-70,65.1-116.6,67.6c31.1,37.7,44.2,88.4,33.4,137.6h70.3
		C411.6,437.8,417.4,432,417.4,424.9z"/>
	<path class="st2" d="M300.8,300.2c-15.8,0.9-31.8-0.8-47.7-5.3c-9,13.5-19.9,25.3-32.1,35.2c0.3,0,0.5-0.1,0.8-0.1h56.3
		c7.1,0,12.9,5.8,12.9,12.9v81.9c0,7.1,5.8,12.9,12.9,12.9h30.3C345.1,388.6,332,337.9,300.8,300.2z"/>
	<path class="st2" d="M209,373.2V343c0-1.6,0.3-3.1,0.9-4.6c-1.5,1-3,2-4.6,3C205.5,352.2,206.7,362.8,209,373.2z"/>
	<path class="st3" d="M145.7,135.6L93,174.8c-5.7,4.2-10.4,13.5-10.4,20.6v76.2c26.8-19,59.1-29.6,92.2-29.9
		C152.2,211.7,141.4,173.7,145.7,135.6z"/>
	<path class="st4" d="M205.3,341.4c-0.4-20.8,3.1-41.9,10.9-62.5c-16.4-9.9-30.3-22.6-41.4-37.3c-33.2,0.3-65.4,10.9-92.2,29.9v89.6
		C125.3,371.7,169.5,363.8,205.3,341.4z"/>
	<path class="st5" d="M253.2,295c-6.2-1.7-12.4-3.9-18.5-6.5c-6.5-2.8-12.6-6-18.5-9.5c-7.8,20.5-11.3,41.7-10.9,62.5
		c1.5-1,3.1-2,4.6-3c1.8-4.6,6.1-7.9,11.2-8.3C233.3,320.3,244.1,308.5,253.2,295z"/>
	<path class="st6" d="M261.1,65.4c-5.7-4.3-15-4.3-20.7,0L219.4,81c36.7,28.9,58.5,72.3,60.6,118.1c36.8-24.4,82.6-33.8,127.3-24.1
		c-0.1-0.1-0.2-0.2-0.3-0.2L261.1,65.4z"/>
	<path class="st7" d="M280,199.1c1.1,23.2-3,47.1-12.7,69.9c-0.1,0.2-0.2,0.3-0.2,0.5c12.9,8.7,24.2,19.1,33.8,30.7
		c46.6-2.5,90.5-27.1,116.6-67.6v-37.2c0-7-4.5-16.1-10.1-20.4C362.6,165.3,316.8,174.7,280,199.1z"/>
	<path class="st8" d="M267,269.5c-3.9,9-8.6,17.5-13.9,25.4c15.8,4.4,31.9,6.1,47.7,5.3C291.2,288.6,279.9,278.2,267,269.5z"/>
	<path class="st9" d="M174.8,241.7c18.4-0.2,37,2.8,55.1,9.2c13-21.2,30.2-38.6,50-51.8c-2.1-45.8-24-89.3-60.6-118.1l-73.6,54.7
		C141.4,173.7,152.2,211.7,174.8,241.7z"/>
	<path class="st10" d="M230,250.9c-18.2-6.4-36.8-9.4-55.1-9.2c11.1,14.7,25,27.4,41.4,37.3c0.8-2.1,1.6-4.2,2.5-6.3
		C222,265,225.8,257.7,230,250.9z"/>
	<path class="st11" d="M267,269.5c0.1-0.2,0.2-0.3,0.2-0.5c9.8-22.8,13.8-46.7,12.7-69.9c-19.8,13.1-37.1,30.6-50,51.8
		c3.3,1.2,6.6,2.4,9.9,3.8C249.6,258.8,258.6,263.8,267,269.5z"/>
	<path class="st12" d="M239.9,254.7c-3.3-1.4-6.6-2.7-9.9-3.8c-4.2,6.9-8,14.1-11.3,21.8c-0.9,2.1-1.7,4.2-2.5,6.3
		c5.9,3.5,12,6.7,18.5,9.5c6.1,2.6,12.3,4.7,18.5,6.5c5.3-7.9,10-16.4,13.9-25.4C258.6,263.8,249.6,258.8,239.9,254.7z"/>
</g>
</svg>
